<svg width="458" height="283" viewBox="0 0 458 283" fill="none" xmlns="http://www.w3.org/2000/svg">
<path d="M0 98.6606H67.482M425.5 282.5L286.5 98.6606H225.767M152.5 98.6606H86.8335M152.5 98.6606L182.5 143.234H259.613L269.5 159M152.5 98.6606H171.186M67.482 98.6606L106.185 47.5766H126.529M67.482 98.6606H86.8335M256.035 1L216.836 47.5766H195.003M256.035 1H236.187L195.003 47.5766M256.035 1H366M458 1H366M195.003 47.5766H126.529M126.529 47.5766L86.8335 98.6606M356 282.5L269.5 159M225.767 98.6606L241.645 77.626H299L366 1M225.767 98.6606H171.186M171.186 98.6606L211 159H269.5" stroke="#575757" stroke-opacity="0.2"/>
</svg>
